<svg xmlns="http://www.w3.org/2000/svg"><symbol id="gh" viewBox="140 139 520 510"><path d="M400 139c144 0 260 116 260 260 0 115-75 213-178 247-9 3-17-2-17-13v-71c0-35-18-48-18-48 57-6 119-28 119-128 0-44-27-70-27-70s14-29-2-69c0 0-22-7-72 27-42-12-88-12-130 0-50-34-72-27-72-27-16 40-2 69-2 69s-27 26-27 70c0 100 62 122 119 128 0 0-14 10-17 35-15 7-53 18-76-22 0 0-13-25-39-27 0 0-26 0-2 16 0 0 17 8 29 38 0 0 16 51 88 35v44c0 11-9 16-18 13-103-34-178-132-178-247 0-144 116-260 260-260z"/></symbol><symbol id="tg" viewBox="15 21 42 36"><path d="M53.7 21.8L16 36.4c-1.2.5-1.1 2.2.1 2.6l9.6 2.8 3.6 11.3c.4 1.2 1.9 1.5 2.7.7l4.9-5 9.7 7.1c1.2.9 2.9.2 3.2-1.2L56.3 24c.3-1.5-1.2-2.8-2.6-2.2zM49 28.6L31.5 44.1c-.2.2-.3.4-.3.6l-.7 6c0 .2-.3.2-.4 0l-2.8-8.9c-.1-.4 0-.9.4-1.1l20.7-12.8c.5-.3 1 .3.6.7z"/></symbol><symbol id="vk" viewBox="0 0 800 800"><path d="M393 566c-135 0-208-143-276-285-10-21 6-23 16-23l81-1c12 0 17 9 20 15 13 31 66 142 92 129 18-9 15-107 4-122-7-9-20-12-26-13-5-1 3-11 13-16 18-9 87-9 111-3 28 7 19 32 19 95 0 20-4 50 11 58 24 12 81-101 91-131 3-8 9-11 19-11h85c20 0 27 1 30 8 5 12-9 40-44 87-57 77-65 70-17 114 46 42 55 63 57 66 14 28-11 34-21 34h-76c-9 0-21 0-38-11-29-19-55-70-76-64-17 5-20 34-21 53-1 16-10 21-20 21h-34z"/></symbol></svg>